<svg width="25" height="18" viewBox="0 0 25 18" fill="none" xmlns="http://www.w3.org/2000/svg">
<path d="M6 4.91549V2.95775C6 1.87651 6.89543 1 8 1H19C20.1046 1 21 1.87651 21 2.95775V11.7676C21 12.8488 20.1046 13.7254 19 13.7254H14M10 5.40493H17M13 9.32042H17M4.58579 14.2988C5.36683 15.0633 6.63317 15.0633 7.41421 14.2988C7.78929 13.9316 8.29799 13.7254 8.82843 13.7254H9C10.1046 13.7254 11 14.6019 11 15.6831V16.662C11 17.7432 10.1046 18.6197 9 18.6197H3C1.89543 18.6197 1 17.7432 1 16.662V15.6831C1 14.6019 1.89543 13.7254 3 13.7254H3.17157C3.70201 13.7254 4.21071 13.9316 4.58579 14.2988ZM8 9.80986C8 10.8911 7.10457 11.7676 6 11.7676C4.89543 11.7676 4 10.8911 4 9.80986C4 8.72863 4.89543 7.85211 6 7.85211C7.10457 7.85211 8 8.72863 8 9.80986Z" stroke="#303658" stroke-width="1.5" stroke-linecap="round"/>
</svg>
