<svg width="15" height="11" viewBox="0 0 15 11" fill="none" xmlns="http://www.w3.org/2000/svg">
<path d="M13.6155 9.26459C13.3955 9.26459 13.1511 9.19125 12.98 9.04459L9.06888 6.28236C8.87332 6.1357 8.7511 5.9157 8.7511 5.6957V4.71792C8.7511 4.47347 8.87332 4.25348 9.06888 4.13125L12.98 1.36903C13.2978 1.12459 13.7133 1.0757 14.08 1.24681C14.4467 1.36903 14.6667 1.7357 14.6667 2.15125V8.21347C14.6667 8.62903 14.4467 8.9957 14.0555 9.16681C13.9333 9.2157 13.7867 9.26459 13.6155 9.26459ZM10.2178 5.28014L13.2 7.40681V2.95792L10.2178 5.08459V5.28014Z" fill="#2CC84A"/>
<path d="M8.8 10.34H1.41778C0.635556 10.34 0 9.70444 0 8.92222V1.41778C0 0.635556 0.635556 0 1.41778 0H8.8C9.58222 0 10.2178 0.635556 10.2178 1.41778V8.94667C10.2178 9.70444 9.58222 10.34 8.8 10.34ZM1.46667 8.87333H8.75111V1.46667H1.46667V8.87333Z" fill="#2CC84A"/>
</svg>
