<svg width="30" height="30" viewBox="0 0 30 30" fill="none" xmlns="http://www.w3.org/2000/svg">
<g filter="url(#filter0_d_106_1367)">
<circle cx="15" cy="13" r="10" transform="rotate(-180 15 13)" fill="white"/>
</g>
<path d="M14.8266 9.60282L15.2725 9.14529C15.4613 8.95157 15.7667 8.95157 15.9535 9.14529L19.8584 13.1496C20.0472 13.3434 20.0472 13.6566 19.8584 13.8483L15.9535 17.8547C15.7646 18.0484 15.4593 18.0484 15.2725 17.8547L14.8266 17.3972C14.6358 17.2014 14.6398 16.882 14.8346 16.6903L17.2551 14.3244H11.4821C11.2149 14.3244 11 14.1038 11 13.8297V13.1703C11 12.8962 11.2149 12.6756 11.4821 12.6756H17.2551L14.8346 10.3097C14.6378 10.118 14.6337 9.7986 14.8266 9.60282Z" fill="#D0C9C9"/>
<defs>
<filter id="filter0_d_106_1367" x="0" y="0" width="30" height="30" filterUnits="userSpaceOnUse" color-interpolation-filters="sRGB">
<feFlood flood-opacity="0" result="BackgroundImageFix"/>
<feColorMatrix in="SourceAlpha" type="matrix" values="0 0 0 0 0 0 0 0 0 0 0 0 0 0 0 0 0 0 127 0" result="hardAlpha"/>
<feOffset dy="2"/>
<feGaussianBlur stdDeviation="2.5"/>
<feComposite in2="hardAlpha" operator="out"/>
<feColorMatrix type="matrix" values="0 0 0 0 0.815686 0 0 0 0 0.788235 0 0 0 0 0.788235 0 0 0 1 0"/>
<feBlend mode="normal" in2="BackgroundImageFix" result="effect1_dropShadow_106_1367"/>
<feBlend mode="normal" in="SourceGraphic" in2="effect1_dropShadow_106_1367" result="shape"/>
</filter>
</defs>
</svg>
