<svg width="30" height="30" viewBox="0 0 30 30" fill="none" xmlns="http://www.w3.org/2000/svg">
<circle cx="15.0001" cy="15" r="15" fill="white"/>
<path d="M14.5274 8.87074L15.1715 8.20987C15.4443 7.93004 15.8853 7.93004 16.1551 8.20987L21.7956 13.9939C22.0683 14.2738 22.0683 14.7262 21.7956 15.0031L16.1551 20.7901C15.8824 21.07 15.4414 21.07 15.1715 20.7901L14.5274 20.1293C14.2518 19.8465 14.2576 19.385 14.539 19.1082L18.0353 15.6907H9.69647C9.31058 15.6907 9.00012 15.3722 9.00012 14.9763V14.0237C9.00012 13.6278 9.31058 13.3093 9.69647 13.3093H18.0353L14.539 9.8918C14.2547 9.61495 14.2489 9.15354 14.5274 8.87074Z" fill="#3D56F0"/>
</svg>
