<svg width="15" height="18" viewBox="0 0 15 18" fill="none" xmlns="http://www.w3.org/2000/svg">
<path d="M0 15.5357C0 16.423 0.719866 17.1429 1.60714 17.1429H13.3929C14.2801 17.1429 15 16.423 15 15.5357V6.42857H0V15.5357ZM10.7143 8.97322C10.7143 8.75223 10.8951 8.57143 11.1161 8.57143H12.4554C12.6763 8.57143 12.8571 8.75223 12.8571 8.97322V10.3125C12.8571 10.5335 12.6763 10.7143 12.4554 10.7143H11.1161C10.8951 10.7143 10.7143 10.5335 10.7143 10.3125V8.97322ZM10.7143 13.2589C10.7143 13.0379 10.8951 12.8571 11.1161 12.8571H12.4554C12.6763 12.8571 12.8571 13.0379 12.8571 13.2589V14.5982C12.8571 14.8192 12.6763 15 12.4554 15H11.1161C10.8951 15 10.7143 14.8192 10.7143 14.5982V13.2589ZM6.42857 8.97322C6.42857 8.75223 6.60938 8.57143 6.83036 8.57143H8.16964C8.39062 8.57143 8.57143 8.75223 8.57143 8.97322V10.3125C8.57143 10.5335 8.39062 10.7143 8.16964 10.7143H6.83036C6.60938 10.7143 6.42857 10.5335 6.42857 10.3125V8.97322ZM6.42857 13.2589C6.42857 13.0379 6.60938 12.8571 6.83036 12.8571H8.16964C8.39062 12.8571 8.57143 13.0379 8.57143 13.2589V14.5982C8.57143 14.8192 8.39062 15 8.16964 15H6.83036C6.60938 15 6.42857 14.8192 6.42857 14.5982V13.2589ZM2.14286 8.97322C2.14286 8.75223 2.32366 8.57143 2.54464 8.57143H3.88393C4.10491 8.57143 4.28571 8.75223 4.28571 8.97322V10.3125C4.28571 10.5335 4.10491 10.7143 3.88393 10.7143H2.54464C2.32366 10.7143 2.14286 10.5335 2.14286 10.3125V8.97322ZM2.14286 13.2589C2.14286 13.0379 2.32366 12.8571 2.54464 12.8571H3.88393C4.10491 12.8571 4.28571 13.0379 4.28571 13.2589V14.5982C4.28571 14.8192 4.10491 15 3.88393 15H2.54464C2.32366 15 2.14286 14.8192 2.14286 14.5982V13.2589ZM13.3929 2.14286H11.7857V0.535714C11.7857 0.241071 11.5446 0 11.25 0H10.1786C9.88393 0 9.64286 0.241071 9.64286 0.535714V2.14286H5.35714V0.535714C5.35714 0.241071 5.11607 0 4.82143 0H3.75C3.45536 0 3.21429 0.241071 3.21429 0.535714V2.14286H1.60714C0.719866 2.14286 0 2.86272 0 3.75V5.35714H15V3.75C15 2.86272 14.2801 2.14286 13.3929 2.14286Z" fill="#747688"/>
</svg>
