<svg width="16" height="16" viewBox="0 0 16 16" fill="none" xmlns="http://www.w3.org/2000/svg">
    <path d="M5.54999 9.39941H10.45M5.54999 5.89941H7.99999" stroke="currentColor" stroke-width="1.5"
        stroke-linecap="round" stroke-linejoin="round" />
    <path
        d="M9.51942 13.8734C12.4475 13.6787 14.7799 11.3133 14.9718 8.34361C15.0094 7.76247 15.0094 7.16065 14.9718 6.57951C14.7799 3.60986 12.4475 1.24439 9.51942 1.04975C8.52047 0.983348 7.4775 0.983484 6.48058 1.04975C3.55247 1.24439 1.22009 3.60986 1.02817 6.57951C0.990611 7.16065 0.990611 7.76247 1.02817 8.34361C1.09807 9.42519 1.5764 10.4266 2.13953 11.2722C2.46651 11.8642 2.25072 12.6031 1.91015 13.2485C1.66459 13.7138 1.54181 13.9465 1.64039 14.1146C1.73897 14.2826 1.95918 14.288 2.3996 14.2987C3.27057 14.3199 3.85788 14.073 4.32407 13.7292C4.58848 13.5343 4.72069 13.4368 4.81181 13.4256C4.90292 13.4144 5.08224 13.4882 5.4408 13.6359C5.76308 13.7686 6.13728 13.8505 6.48058 13.8734C7.4775 13.9396 8.52047 13.9398 9.51942 13.8734Z"
        stroke="currentColor" stroke-width="1.5" stroke-linejoin="round" />
</svg>