<svg width="14" height="17" viewBox="0 0 14 17" fill="none" xmlns="http://www.w3.org/2000/svg">
<path d="M12.8332 8.57145V12.5715C12.8332 14.0442 11.7885 15.2381 10.4998 15.2381H3.49984C2.21117 15.2381 1.1665 14.0442 1.1665 12.5715V4.57145C1.1665 3.09869 2.21117 1.90479 3.49984 1.90479H6.99984M9.15021 3.25328C9.15021 3.25328 9.15021 4.20682 9.98455 5.16035C10.8189 6.11388 11.6532 6.11388 11.6532 6.11388M5.34006 11.2312L7.09218 10.9451C7.34491 10.9038 7.57912 10.77 7.75965 10.5637L12.4876 5.16034C12.9484 4.63372 12.9484 3.7799 12.4876 3.25328L11.6532 2.29975C11.1924 1.77313 10.4453 1.77313 9.98456 2.29975L5.25663 7.70309C5.0761 7.90941 4.959 8.17708 4.92289 8.46592L4.67259 10.4683C4.61697 10.9133 4.9507 11.2947 5.34006 11.2312Z" stroke="#5669FF" stroke-width="1.5" stroke-linecap="round"/>
</svg>
