<svg width="34" height="34" viewBox="0 0 34 34" fill="none" xmlns="http://www.w3.org/2000/svg">
<g clip-path="url(#clip0_30_9)">
<path d="M17 34C26.1127 34 33.5 26.6127 33.5 17.5C33.5 8.3873 26.1127 1 17 1C7.8873 1 0.5 8.3873 0.5 17.5C0.5 26.6127 7.8873 34 17 34Z" fill="white" stroke="#171766"/>
<path d="M11 18C11 17.4477 10.5523 17 10 17C9.44772 17 9 17.4477 9 18C9 18.5523 9.44772 19 10 19C10.5523 19 11 18.5523 11 18Z" fill="#171766"/>
<path d="M18 18C18 17.4477 17.5523 17 17 17C16.4477 17 16 17.4477 16 18C16 18.5523 16.4477 19 17 19C17.5523 19 18 18.5523 18 18Z" fill="#171766"/>
<path d="M25 18C25 17.4477 24.5523 17 24 17C23.4477 17 23 17.4477 23 18C23 18.5523 23.4477 19 24 19C24.5523 19 25 18.5523 25 18Z" fill="#171766"/>
</g>
<defs>
<clipPath id="clip0_30_9">
<rect width="34" height="34" fill="white"/>
</clipPath>
</defs>
</svg>
