<svg width="15" height="20" viewBox="0 0 15 20" fill="none" xmlns="http://www.w3.org/2000/svg">
<path d="M13.5889 0.873047H10.7087C10.3186 0.873047 10.1253 1.34336 10.3988 1.62044L11.0149 2.23659L8.07272 5.17878C7.26335 4.66836 6.30449 4.37305 5.27637 4.37305C2.37793 4.37305 0.0263672 6.72461 0.0263672 9.62305C0.0263672 12.1204 1.77272 14.2131 4.1097 14.7418V15.748H2.7972C2.55658 15.748 2.3597 15.9449 2.3597 16.1855V17.6439C2.3597 17.8845 2.55658 18.0814 2.7972 18.0814H4.1097V19.1022C4.1097 19.3428 4.30658 19.5397 4.5472 19.5397H6.00553C6.24616 19.5397 6.44303 19.3428 6.44303 19.1022V18.0814H7.75553C7.99616 18.0814 8.19303 17.8845 8.19303 17.6439V16.1855C8.19303 15.9449 7.99616 15.748 7.75553 15.748H6.44303V14.7418C8.78001 14.2095 10.5264 12.1204 10.5264 9.62305C10.5264 8.59492 10.2311 7.63607 9.72064 6.82669L12.6628 3.8845L13.279 4.50065C13.5561 4.77773 14.0264 4.58086 14.0264 4.19075V1.31055C14.0264 1.06992 13.8295 0.873047 13.5889 0.873047ZM5.27637 12.5397C3.66855 12.5397 2.3597 11.2309 2.3597 9.62305C2.3597 8.01523 3.66855 6.70638 5.27637 6.70638C6.88418 6.70638 8.19303 8.01523 8.19303 9.62305C8.19303 11.2309 6.88418 12.5397 5.27637 12.5397Z" fill="#A4A4A4"/>
</svg>
