<svg width="15" height="15" viewBox="0 0 15 15" fill="none" xmlns="http://www.w3.org/2000/svg">
<g clip-path="url(#clip0_4522_2797)">
<path d="M13.9333 14.6667H0.733333C0.317778 14.6667 0 14.3494 0 13.9346V0.732113C0 0.317249 0.317778 0 0.733333 0H13.9333C14.3489 0 14.6667 0.317249 14.6667 0.732113V13.9346C14.6667 14.325 14.3489 14.6667 13.9333 14.6667ZM1.46667 13.2024H13.2V1.46423H1.46667V13.2024Z" fill="#FAB623"/>
<path d="M0.733333 14.6667C0.537778 14.6667 0.366667 14.5935 0.22 14.4471C-0.0733333 14.1542 -0.0733333 13.6905 0.22 13.4221L8.97111 4.66114C9.21556 4.4171 9.55778 4.36829 9.85111 4.53912L13.64 6.68665C13.9822 6.88188 14.1044 7.32115 13.9089 7.68721C13.7133 8.02886 13.2733 8.15088 12.9067 7.95565L9.60667 6.07656L1.24667 14.4471C1.1 14.5935 0.928889 14.6667 0.733333 14.6667Z" fill="#FAB623"/>
<path d="M4.49779 7.05254C3.10446 7.05254 1.95557 5.90556 1.95557 4.49014C1.95557 3.07472 3.10446 1.95215 4.49779 1.95215C5.89112 1.95215 7.06446 3.09913 7.06446 4.51454C7.06446 5.90556 5.91557 7.05254 4.49779 7.05254ZM4.49779 3.41637C3.91112 3.41637 3.42223 3.90445 3.42223 4.49014C3.42223 5.10023 3.91112 5.58831 4.52223 5.58831C5.13334 5.58831 5.62223 5.10023 5.62223 4.49014C5.59779 3.90445 5.1089 3.41637 4.49779 3.41637Z" fill="#FAB623"/>
</g>
<defs>
<clipPath id="clip0_4522_2797">
<rect width="14.6667" height="14.6667" fill="white"/>
</clipPath>
</defs>
</svg>
