<svg width="21" height="21" viewBox="0 0 21 21" fill="none" xmlns="http://www.w3.org/2000/svg">
<g clip-path="url(#clip0_101_11)">
<path d="M10.5 0C16.275 0 21 4.725 21 10.5C21 16.275 16.275 21 10.5 21C4.725 21 0 16.275 0 10.5C0 4.725 4.725 0 10.5 0ZM10.5 18.9C15.12 18.9 18.9 15.12 18.9 10.5C18.9 5.88 15.12 2.1 10.5 2.1C5.88 2.1 2.1 5.88 2.1 10.5C2.1 15.12 5.88 18.9 10.5 18.9Z" fill="#B3B3BF"/>
<g clip-path="url(#clip1_101_11)">
<path d="M7.12489 9.45005H15.8399C16.4349 9.45005 16.8899 9.90505 16.8899 10.5001C16.8899 11.0951 16.4349 11.5501 15.8399 11.5501H7.12489C6.52989 11.5501 6.07489 11.0951 6.07489 10.5001C6.07489 9.90505 6.56489 9.45005 7.12489 9.45005Z" fill="#B3B3BF"/>
</g>
</g>
<defs>
<clipPath id="clip0_101_11">
<rect width="21" height="21" fill="white"/>
</clipPath>
<clipPath id="clip1_101_11">
<rect width="11" height="3" fill="white" transform="translate(6 9)"/>
</clipPath>
</defs>
</svg>
