<svg width="16" height="14" viewBox="0 0 16 14" fill="none" xmlns="http://www.w3.org/2000/svg">
    <path
        d="M1 7.29941C1 6.52622 1.6268 5.89941 2.4 5.89941C3.5598 5.89941 4.5 6.83962 4.5 7.99941V10.7994C4.5 11.9592 3.5598 12.8994 2.4 12.8994C1.6268 12.8994 1 12.2726 1 11.4994V7.29941Z"
        stroke="currentColor" stroke-width="1.5" stroke-linecap="round" stroke-linejoin="round" />
    <path
        d="M10.4351 4.01438L10.2487 4.61644C10.096 5.10978 10.0196 5.35644 10.0783 5.55126C10.1258 5.70886 10.2302 5.84471 10.3723 5.9341C10.548 6.04458 10.8138 6.04458 11.3454 6.04458H11.6282C13.4272 6.04458 14.3267 6.04458 14.7516 6.57711C14.8002 6.63797 14.8434 6.70269 14.8807 6.77057C15.2076 7.3645 14.836 8.16459 14.0928 9.76477C13.4108 11.2332 13.0698 11.9674 12.4366 12.3996C12.3753 12.4414 12.3123 12.4809 12.2478 12.5179C11.5812 12.9 10.7553 12.9 9.10349 12.9H8.74522C6.744 12.9 5.7434 12.9 5.1217 12.2976C4.5 11.6953 4.5 10.7258 4.5 8.78675V8.10524C4.5 7.08624 4.5 6.57675 4.68084 6.11042C4.86168 5.64408 5.20795 5.26065 5.90049 4.49378L8.76448 1.32239C8.83631 1.24286 8.87223 1.20308 8.90389 1.17552C9.19948 0.918296 9.65566 0.94725 9.91408 1.23964C9.94177 1.27097 9.97202 1.31494 10.0325 1.40288C10.1272 1.54043 10.1745 1.60921 10.2157 1.67736C10.585 2.28739 10.6967 3.01205 10.5276 3.7C10.5087 3.77684 10.4841 3.85607 10.4351 4.01438Z"
        stroke="currentColor" stroke-width="1.5" stroke-linecap="round" stroke-linejoin="round" />
</svg>