<svg width="18" height="18" viewBox="0 0 18 18" fill="none" xmlns="http://www.w3.org/2000/svg">
<path d="M12.6622 14.6911C5.69556 14.6911 0 8.99556 0 2.00444C0 0.904444 0.904444 0 2.00444 0H4.49778C5.30444 0 5.94 0.635556 5.94 1.44222C5.94 2.49333 6.16 3.49556 6.6 4.44889C6.72222 4.71778 6.67333 5.06 6.45333 5.28L5.37778 6.33111C5.28 6.42889 5.23111 6.57556 5.23111 6.72222C5.23111 6.86889 5.28 6.99111 5.37778 7.11333L7.55333 9.28889C7.74889 9.48444 8.11556 9.48444 8.31111 9.28889L9.36222 8.23778C9.58222 8.01778 9.9 7.96889 10.1933 8.09111C11.1467 8.53111 12.1733 8.75111 13.2489 8.75111C14.0311 8.75111 14.6911 9.38667 14.6911 10.1933V12.6867C14.6667 13.7867 13.7867 14.6911 12.6622 14.6911ZM2.00444 1.46667C1.71111 1.46667 1.46667 1.71111 1.46667 2.00444C1.46667 8.18889 6.50222 13.2244 12.6622 13.2244C12.9556 13.2244 13.2 12.98 13.2 12.6867V10.2178C12.1 10.2178 11.0489 10.0222 10.0467 9.60667L9.36222 10.2911C8.99555 10.6578 8.48222 10.8778 7.94444 10.8778C7.40667 10.8778 6.91778 10.6578 6.52667 10.2911L4.35111 8.11556C3.98444 7.74889 3.76444 7.23556 3.76444 6.69778C3.76444 6.16 3.98444 5.67111 4.35111 5.28L5.06 4.57111C4.66889 3.56889 4.47333 2.51778 4.47333 1.44222H2.00444V1.46667Z" fill="#707070"/>
</svg>
