<svg width="10" height="11" viewBox="0 0 10 11" fill="none" xmlns="http://www.w3.org/2000/svg">
<path d="M5.49701 10.4158C5.30299 10.4158 5.10897 10.3113 5.02078 10.1371C4.89731 9.87588 4.98551 9.56236 5.25008 9.44044C9.05993 7.52448 8.93647 4.82472 8.93647 4.80731C8.93647 4.78989 8.93647 4.78989 8.93647 4.77247C8.93647 2.71717 7.40194 1.04507 5.49701 1.04507C3.59209 1.04507 2.05756 2.71717 2.05756 4.77247C2.05756 5.06857 1.82826 5.295 1.52841 5.295C1.22856 5.295 0.999268 5.06857 0.999268 4.77247C0.999268 2.14239 3.01002 0 5.49701 0C7.96636 0 9.99476 2.12497 9.99476 4.75505C10.0124 5.05116 10.03 8.22119 5.72631 10.3636C5.65576 10.3984 5.5852 10.4158 5.49701 10.4158Z" fill="#4CC2CB"/>
<path d="M5.49683 10.4158C5.40863 10.4158 5.33808 10.3984 5.26753 10.3636C0.963804 8.22119 0.981442 5.05116 0.99908 4.75505C0.99908 2.12497 3.02748 0 5.49683 0C7.98382 0 9.99457 2.14239 9.99457 4.77247C9.99457 5.06857 9.76528 5.295 9.46543 5.295C9.16558 5.295 8.93628 5.06857 8.93628 4.77247C8.93628 2.71717 7.40175 1.04507 5.49683 1.04507C3.5919 1.04507 2.05737 2.71717 2.05737 4.77247C2.05737 4.78989 2.05737 4.78989 2.05737 4.80731C2.05737 4.91181 1.96918 7.55932 5.74376 9.44044C6.00833 9.56236 6.11416 9.8933 5.97306 10.1371C5.88487 10.3113 5.69085 10.4158 5.49683 10.4158Z" fill="#4CC2CB"/>
<path d="M5.49659 6.35815C4.35011 6.35815 3.41528 5.43501 3.41528 4.30286C3.41528 3.1707 4.35011 2.24756 5.49659 2.24756C6.64308 2.24756 7.5779 3.1707 7.5779 4.30286C7.5779 5.43501 6.64308 6.35815 5.49659 6.35815ZM5.49659 3.29263C4.93217 3.29263 4.47358 3.74549 4.47358 4.30286C4.47358 4.86023 4.93217 5.31309 5.49659 5.31309C6.06102 5.31309 6.51961 4.86023 6.51961 4.30286C6.51961 3.74549 6.06102 3.29263 5.49659 3.29263Z" fill="#4CC2CB"/>
</svg>
