<svg width="21" height="21" viewBox="0 0 21 21" fill="none" xmlns="http://www.w3.org/2000/svg">
<path d="M10.5 21C4.725 21 0 16.275 0 10.5C0 4.725 4.725 0 10.5 0C16.275 0 21 4.725 21 10.5C21 16.275 16.275 21 10.5 21ZM10.5 2.1C5.88 2.1 2.1 5.88 2.1 10.5C2.1 15.12 5.88 18.9 10.5 18.9C15.12 18.9 18.9 15.12 18.9 10.5C18.9 5.88 15.12 2.1 10.5 2.1Z" fill="#172B4D"/>
<g clip-path="url(#clip0_101_8)">
<path d="M13.8751 11.55H5.16011C4.56511 11.55 4.11011 11.095 4.11011 10.5C4.11011 9.90495 4.56511 9.44995 5.16011 9.44995H13.8751C14.4701 9.44995 14.9251 9.90495 14.9251 10.5C14.9251 11.095 14.4351 11.55 13.8751 11.55Z" fill="#172B4D"/>
</g>
<g clip-path="url(#clip1_101_8)">
<path d="M11.5 15.9251C11.22 15.9251 10.975 15.8201 10.765 15.6101C10.345 15.1901 10.345 14.5251 10.765 14.1401L14.37 10.5001L10.765 6.89511C10.345 6.47511 10.345 5.81011 10.765 5.42511C11.185 5.00511 11.85 5.00511 12.235 5.42511L16.61 9.80011C17.03 10.2201 17.03 10.8851 16.61 11.2701L12.235 15.6101C12.025 15.8201 11.78 15.9251 11.5 15.9251Z" fill="#172B4D"/>
</g>
<defs>
<clipPath id="clip0_101_8">
<rect width="11" height="3" fill="white" transform="translate(4 9)"/>
</clipPath>
<clipPath id="clip1_101_8">
<rect width="7" height="11" fill="white" transform="translate(10 5)"/>
</clipPath>
</defs>
</svg>
