<svg width="16" height="16" viewBox="0 0 16 16" fill="none" xmlns="http://www.w3.org/2000/svg">
    <path
        d="M13.8749 4.52159L12.652 3.45964C11.7709 2.69449 11.4256 2.28288 10.9485 2.42839C10.3535 2.60983 10.5494 3.75468 10.5494 4.14118C9.62441 4.14118 8.66276 4.07004 7.75101 4.21827C4.74116 4.7076 3.79999 6.84906 3.79999 9.15619C4.65187 8.63399 5.50291 8.05166 6.52677 7.80964C7.80484 7.50752 9.23223 7.65169 10.5494 7.65169C10.5494 8.03817 10.3535 9.18306 10.9485 9.36448C11.4891 9.52933 11.7709 9.09838 12.652 8.33323L13.8749 7.27128C14.6249 6.61989 15 6.2942 15 5.89643C15 5.49867 14.6249 5.17297 13.8749 4.52159Z"
        stroke="currentColor" stroke-width="1.5" stroke-linecap="round" stroke-linejoin="round" />
    <path
        d="M6.99731 1C4.29514 1.00486 2.88016 1.07106 1.97587 1.97351C1 2.94741 1 4.51488 1 7.64981C0.999999 10.7847 0.999999 12.3522 1.97587 13.3261C2.95174 14.3 4.52239 14.3 7.66367 14.3C10.805 14.3 12.3756 14.3 13.3515 13.3261C14.0309 12.648 14.2373 11.6822 14.3 10.1"
        stroke="currentColor" stroke-width="1.5" stroke-linecap="round" stroke-linejoin="round" />
</svg>