<svg width="11" height="14" viewBox="0 0 11 14" fill="none" xmlns="http://www.w3.org/2000/svg">
<mask id="path-1-inside-1_5331_2678" fill="white">
<path fill-rule="evenodd" clip-rule="evenodd" d="M4.35011 7.56564H4.62903V8.98639L5.69694 8.98639V7.56564H5.97727L5.97727 4.1046H7.21261L5.17424 2.03114L3.0651 4.1046L4.35011 4.1046L4.35011 7.56564ZM7.19694 9.48639C7.19694 10.0387 6.74922 10.4864 6.19694 10.4864L4.12903 10.4864C3.57674 10.4864 3.12903 10.0387 3.12903 9.48639L3.12903 5.88453V5.60438H1.53951H1.49343H1.12529H0.625295C0.179843 5.60438 -0.0340527 5.06589 0.286305 4.75095L0.645892 4.39745L0.910645 4.13717L0.943782 4.1046L5.03065 0.086884C5.12994 -0.0107322 5.28824 -0.0107322 5.3842 0.086884L9.33393 4.1046L9.36596 4.13717L9.62183 4.39745L9.96935 4.75095C10.279 5.06589 10.0467 5.60438 9.60123 5.60438H9.10123L8.73309 5.60438H8.68701H7.19694V5.88453V9.48639ZM1.05504 11.6506C0.640824 11.6506 0.305037 11.9864 0.305037 12.4006C0.305037 12.8148 0.640824 13.1506 1.05504 13.1506H9.19086C9.60507 13.1506 9.94086 12.8148 9.94086 12.4006C9.94086 11.9864 9.60507 11.6506 9.19086 11.6506H1.05504Z"/>
</mask>
<path d="M4.62903 7.56564H6.12903V6.06564H4.62903V7.56564ZM4.35011 7.56564H2.85011L2.85011 9.06564H4.35011V7.56564ZM4.62903 8.98639H3.12903V10.4864L4.62903 10.4864L4.62903 8.98639ZM5.69694 8.98639L5.69694 10.4864L7.19694 10.4864V8.98639H5.69694ZM5.69694 7.56564V6.06564H4.19694V7.56564H5.69694ZM5.97727 7.56564V9.06564H7.47727V7.56564L5.97727 7.56564ZM5.97727 4.1046V2.6046H4.47727L4.47727 4.1046H5.97727ZM7.21261 4.1046V5.6046H10.7907L8.28228 3.05302L7.21261 4.1046ZM5.17424 2.03114L6.24391 0.979573L5.19234 -0.0900987L4.12267 0.961473L5.17424 2.03114ZM3.0651 4.1046L2.01353 3.03493L-0.60037 5.6046L3.0651 5.6046L3.0651 4.1046ZM4.35011 4.1046L5.85011 4.1046L5.85011 2.6046L4.35011 2.6046L4.35011 4.1046ZM6.19694 10.4864V8.98639H6.19693L6.19694 10.4864ZM7.19694 9.48639H5.69694V9.4864L7.19694 9.48639ZM4.12903 10.4864V11.9864H4.12903L4.12903 10.4864ZM3.12903 9.48639H4.62903H3.12903ZM3.12903 5.88453H1.62903H3.12903ZM3.12903 5.60438H4.62903V4.10438H3.12903V5.60438ZM0.286305 4.75095L1.33788 5.82062H1.33788L0.286305 4.75095ZM0.645892 4.39745L-0.405678 3.32777L-0.40568 3.32777L0.645892 4.39745ZM0.910645 4.13717L1.96222 5.20685L1.96222 5.20684L0.910645 4.13717ZM0.943782 4.1046L-0.10779 3.03493L-0.107797 3.03493L0.943782 4.1046ZM5.03065 0.086884L3.97908 -0.982791L3.97907 -0.982787L5.03065 0.086884ZM5.3842 0.086884L6.45387 -0.964688L6.45387 -0.96469L5.3842 0.086884ZM9.33393 4.1046L10.4036 3.05303L10.4036 3.05302L9.33393 4.1046ZM9.36596 4.13717L8.29628 5.18874L8.29628 5.18874L9.36596 4.13717ZM9.62183 4.39745L8.55215 5.44902L8.55215 5.44902L9.62183 4.39745ZM9.96935 4.75095L11.039 3.69938L11.039 3.69938L9.96935 4.75095ZM9.10123 5.60438V4.10438H9.10123L9.10123 5.60438ZM8.73309 5.60438V7.10438H8.73309L8.73309 5.60438ZM7.19694 5.60438V4.10438H5.69694V5.60438H7.19694ZM4.62903 6.06564H4.35011V9.06564H4.62903V6.06564ZM6.12903 8.98639V7.56564H3.12903V8.98639H6.12903ZM5.69693 7.48639L4.62902 7.48639L4.62903 10.4864L5.69694 10.4864L5.69693 7.48639ZM4.19694 7.56564V8.98639H7.19694V7.56564H4.19694ZM5.97727 6.06564H5.69694V9.06564H5.97727V6.06564ZM4.47727 4.1046L4.47727 7.56564L7.47727 7.56564L7.47727 4.1046L4.47727 4.1046ZM7.21261 2.6046H5.97727V5.6046H7.21261V2.6046ZM4.10457 3.08272L6.14294 5.15617L8.28228 3.05302L6.24391 0.979573L4.10457 3.08272ZM4.11667 5.17427L6.22581 3.10082L4.12267 0.961473L2.01353 3.03493L4.11667 5.17427ZM4.35011 2.6046L3.0651 2.6046L3.0651 5.6046L4.35011 5.6046L4.35011 2.6046ZM5.85011 7.56564L5.85011 4.1046L2.85011 4.1046L2.85011 7.56564L5.85011 7.56564ZM6.19694 11.9864C7.57764 11.9864 8.69694 10.8671 8.69693 9.48639L5.69694 9.4864C5.69693 9.21025 5.9208 8.98639 6.19694 8.98639V11.9864ZM4.12903 11.9864L6.19694 11.9864L6.19693 8.98639L4.12903 8.98639L4.12903 11.9864ZM1.62903 9.48639C1.62903 10.8671 2.74831 11.9864 4.12903 11.9864V8.98639C4.40517 8.98639 4.62903 9.21025 4.62903 9.48639H1.62903ZM1.62903 5.88453L1.62903 9.48639L4.62903 9.48639V5.88453H1.62903ZM1.62903 5.60438V5.88453H4.62903V5.60438H1.62903ZM1.53951 7.10438H3.12903V4.10438H1.53951V7.10438ZM1.49343 7.10438H1.53951V4.10438H1.49343V7.10438ZM1.12529 7.10438H1.49343V4.10438H1.12529V7.10438ZM0.625295 7.10438H1.12529V4.10438H0.625295V7.10438ZM-0.765267 3.68128C-2.00401 4.89906 -1.21715 7.10438 0.625295 7.10438V4.10438C1.57683 4.10438 1.93591 5.23271 1.33788 5.82062L-0.765267 3.68128ZM-0.40568 3.32777L-0.765267 3.68128L1.33788 5.82062L1.69746 5.46712L-0.40568 3.32777ZM-0.140926 3.0675L-0.405678 3.32777L1.69746 5.46712L1.96222 5.20685L-0.140926 3.0675ZM-0.107797 3.03493L-0.140934 3.06751L1.96222 5.20684L1.99536 5.17426L-0.107797 3.03493ZM3.97907 -0.982787L-0.10779 3.03493L1.99535 5.17427L6.08222 1.15656L3.97907 -0.982787ZM6.45387 -0.96469C5.76029 -1.6702 4.65185 -1.64418 3.97908 -0.982791L6.08221 1.15656C5.60803 1.62271 4.81618 1.64874 4.31453 1.13846L6.45387 -0.96469ZM10.4036 3.05302L6.45387 -0.964688L4.31453 1.13846L8.26426 5.15617L10.4036 3.05302ZM10.4356 3.08561L10.4036 3.05303L8.26425 5.15616L8.29628 5.18874L10.4356 3.08561ZM10.6915 3.34587L10.4356 3.0856L8.29628 5.18874L8.55215 5.44902L10.6915 3.34587ZM11.039 3.69938L10.6915 3.34587L8.55215 5.44902L8.89968 5.80252L11.039 3.69938ZM9.60123 7.10438C11.3237 7.10438 12.3183 5.00067 11.039 3.69938L8.89967 5.80252C8.23961 5.1311 8.76969 4.10438 9.60123 4.10438V7.10438ZM9.10123 7.10438H9.60123V4.10438H9.10123V7.10438ZM8.73309 7.10438L9.10123 7.10438L9.10123 4.10438L8.73309 4.10438L8.73309 7.10438ZM8.68701 7.10438H8.73309V4.10438H8.68701V7.10438ZM7.19694 7.10438H8.68701V4.10438H7.19694V7.10438ZM8.69693 5.88453V5.60438H5.69694V5.88453H8.69693ZM8.69693 9.48639V5.88453H5.69694V9.48639H8.69693ZM1.80504 12.4006C1.80504 12.8148 1.46925 13.1506 1.05504 13.1506V10.1506C-0.187604 10.1506 -1.19496 11.1579 -1.19496 12.4006H1.80504ZM1.05504 11.6506C1.46925 11.6506 1.80504 11.9864 1.80504 12.4006H-1.19496C-1.19496 13.6432 -0.187604 14.6506 1.05504 14.6506V11.6506ZM9.19086 11.6506H1.05504V14.6506H9.19086V11.6506ZM8.44086 12.4006C8.44086 11.9864 8.77664 11.6506 9.19086 11.6506V14.6506C10.4335 14.6506 11.4409 13.6432 11.4409 12.4006H8.44086ZM9.19086 13.1506C8.77664 13.1506 8.44086 12.8148 8.44086 12.4006H11.4409C11.4409 11.1579 10.4335 10.1506 9.19086 10.1506V13.1506ZM1.05504 13.1506H9.19086V10.1506H1.05504V13.1506Z" fill="#D9D9D9" mask="url(#path-1-inside-1_5331_2678)"/>
</svg>
