<svg width="28" height="21" viewBox="0 0 28 21" fill="none" xmlns="http://www.w3.org/2000/svg">
    <path
        d="M24.3693 17.5451C25.2549 17.5451 25.9592 16.9878 26.5917 16.2086C27.8863 14.6135 25.7607 13.3388 24.95 12.7145C24.1259 12.0799 23.2057 11.7204 22.2728 11.636M21.0909 9.27236C22.7227 9.27236 24.0455 7.94957 24.0455 6.31782C24.0455 4.68607 22.7227 3.36328 21.0909 3.36328"
        stroke="currentColor" stroke-width="1.5" stroke-linecap="round" />
    <path
        d="M3.63067 17.5451C2.74514 17.5451 2.04079 16.9878 1.40837 16.2086C0.113743 14.6135 2.23934 13.3388 3.05003 12.7145C3.87415 12.0799 4.79432 11.7204 5.72726 11.636M6.31817 9.27236C4.68643 9.27236 3.36363 7.94957 3.36363 6.31782C3.36363 4.68607 4.68643 3.36328 6.31817 3.36328"
        stroke="currentColor" stroke-width="1.5" stroke-linecap="round" />
    <path
        d="M9.37182 14.1316C8.16426 14.8783 4.99813 16.4029 6.92652 18.3108C7.86852 19.2427 8.91767 19.9093 10.2367 19.9093H17.7634C19.0824 19.9093 20.1316 19.2427 21.0736 18.3108C23.0019 16.4029 19.8358 14.8783 18.6283 14.1316C15.7966 12.3806 12.2035 12.3806 9.37182 14.1316Z"
        stroke="currentColor" stroke-width="1.5" stroke-linecap="round" stroke-linejoin="round" />
    <path
        d="M18.1364 5.13636C18.1364 7.4208 16.2845 9.27271 14 9.27271C11.7156 9.27271 9.86365 7.4208 9.86365 5.13636C9.86365 2.85191 11.7156 1 14 1C16.2845 1 18.1364 2.85191 18.1364 5.13636Z"
        stroke="currentColor" stroke-width="1.5" />
</svg>