<svg width="22" height="23" viewBox="0 0 22 23" fill="none" xmlns="http://www.w3.org/2000/svg">
    <path
        d="M14.25 8C14.25 9.79493 12.7949 11.25 11 11.25V12.75C13.6234 12.75 15.75 10.6234 15.75 8H14.25ZM11 11.25C9.20507 11.25 7.75 9.79493 7.75 8H6.25C6.25 10.6234 8.37665 12.75 11 12.75V11.25ZM7.75 8C7.75 6.20507 9.20507 4.75 11 4.75V3.25C8.37665 3.25 6.25 5.37665 6.25 8H7.75ZM11 4.75C12.7949 4.75 14.25 6.20507 14.25 8H15.75C15.75 5.37665 13.6234 3.25 11 3.25V4.75ZM17.25 18.5C17.25 19.0294 16.8014 19.7105 15.6143 20.3041C14.4722 20.8751 12.8418 21.25 11 21.25V22.75C13.0242 22.75 14.8938 22.3414 16.2852 21.6457C17.6316 20.9725 18.75 19.9036 18.75 18.5H17.25ZM11 21.25C9.15819 21.25 7.52782 20.8751 6.38566 20.3041C5.19864 19.7105 4.75 19.0294 4.75 18.5H3.25C3.25 19.9036 4.36836 20.9725 5.71484 21.6457C7.10618 22.3414 8.97582 22.75 11 22.75V21.25ZM4.75 18.5C4.75 17.9706 5.19864 17.2895 6.38566 16.6959C7.52782 16.1249 9.15819 15.75 11 15.75V14.25C8.97582 14.25 7.10618 14.6586 5.71484 15.3543C4.36836 16.0275 3.25 17.0964 3.25 18.5H4.75ZM11 15.75C12.8418 15.75 14.4722 16.1249 15.6143 16.6959C16.8014 17.2895 17.25 17.9706 17.25 18.5H18.75C18.75 17.0964 17.6316 16.0275 16.2852 15.3543C14.8938 14.6586 13.0242 14.25 11 14.25V15.75Z"
        fill="currentColor" />
</svg>